# 3ds Max Wavefront OBJ Exporter v0.97b - (c)2007 guruware
# File Created: 12.06.2020 22:32:21

mtllib mos.mtl

#
# object Sphere001
#

v  0.0000 23.0147 3.0483
v  -0.0000 20.3998 -1.1899
v  -0.9416 20.3998 -0.9376
v  -1.6309 20.3998 -0.2483
v  -1.8832 20.3998 0.6933
v  -1.6309 20.3998 1.6349
v  -0.9416 20.3998 2.3242
v  -0.0000 20.3998 2.5765
v  0.9416 20.3998 2.3242
v  1.6309 20.3998 1.6349
v  1.8832 20.3998 0.6933
v  1.6309 20.3998 -0.2483
v  0.9416 20.3998 -0.9376
v  -0.0000 16.5091 -7.1194
v  -0.0000 13.1932 -12.1098
v  -6.0549 13.1932 -10.4874
v  -3.5597 16.5091 -6.1656
v  -10.4874 13.1932 -6.0549
v  -6.1656 16.5091 -3.5597
v  -12.1098 13.1932 -0.0000
v  -7.1194 16.5091 -0.0000
v  -10.4874 13.1932 6.0549
v  -6.1656 16.5091 3.5597
v  -6.0549 13.1932 10.4874
v  -3.5597 16.5091 6.1656
v  -0.0000 13.1932 12.1098
v  -0.0000 16.5091 7.1194
v  6.0549 13.1932 10.4874
v  3.5597 16.5091 6.1656
v  10.4874 13.1932 6.0549
v  6.1656 16.5091 3.5597
v  12.1098 13.1932 0.0000
v  7.1194 16.5091 0.0000
v  10.4874 13.1932 -6.0549
v  6.1656 16.5091 -3.5597
v  6.0549 13.1932 -10.4874
v  3.5597 16.5091 -6.1656
v  -0.0000 10.0723 -14.8027
v  -7.4014 10.0723 -12.8195
v  -12.8195 10.0723 -7.4014
v  -14.8027 10.0723 -0.0000
v  -12.8195 10.0723 7.4014
v  -7.4014 10.0723 12.8195
v  -0.0000 10.0723 14.8027
v  7.4014 10.0723 12.8195
v  12.8195 10.0723 7.4014
v  14.8027 10.0723 0.0000
v  12.8195 10.0723 -7.4014
v  7.4014 10.0723 -12.8195
v  -0.0000 2.6949 -16.0290
v  -0.0000 0.9165 -12.3312
v  -6.1656 0.9165 -10.6792
v  -8.0145 2.6949 -13.8815
v  -10.6792 0.9165 -6.1656
v  -13.8815 2.6949 -8.0145
v  -12.3312 0.9165 -0.0000
v  -16.0290 2.6949 -0.0000
v  -10.6792 0.9165 6.1656
v  -13.8815 2.6949 8.0145
v  -6.1656 0.9165 10.6791
v  -8.0145 2.6949 13.8815
v  -0.0000 0.9165 12.3312
v  -0.0000 2.6949 16.0290
v  6.1656 0.9165 10.6792
v  8.0145 2.6949 13.8815
v  10.6791 0.9165 6.1656
v  13.8815 2.6949 8.0145
v  12.3312 0.9165 0.0000
v  16.0290 2.6949 0.0000
v  10.6792 0.9165 -6.1656
v  13.8815 2.6949 -8.0145
v  6.1656 0.9165 -10.6791
v  8.0145 2.6949 -13.8815
v  -0.0000 0.0000 -8.3131
v  -4.1565 0.0000 -7.1994
v  -7.1994 0.0000 -4.1565
v  -8.3131 0.0000 -0.0000
v  -7.1994 0.0000 4.1565
v  -4.1565 0.0000 7.1993
v  -0.0000 0.0000 8.3131
v  4.1565 0.0000 7.1994
v  7.1993 0.0000 4.1566
v  8.3131 0.0000 0.0000
v  7.1994 0.0000 -4.1565
v  4.1566 0.0000 -7.1993
v  -0.0000 6.3927 -16.7940
v  -8.3970 6.3927 -14.5441
v  -14.5441 6.3927 -8.3970
v  -16.7940 6.3927 -0.0000
v  -14.5441 6.3927 8.3970
v  -8.3970 6.3927 14.5440
v  -0.0000 6.3927 16.7940
v  8.3970 6.3927 14.5441
v  14.5440 6.3927 8.3970
v  16.7940 6.3927 0.0000
v  14.5441 6.3927 -8.3970
v  8.3970 6.3927 -14.5440
v  -0.0000 0.0000 0.0000
v  -0.0000 18.5218 -3.7664
v  -1.8832 18.5218 -3.2618
v  -3.2618 18.5218 -1.8832
v  -3.7664 18.5218 -0.0000
v  -3.2618 18.5218 1.8832
v  -1.8832 18.5218 3.2618
v  -0.0000 18.5218 3.7664
v  1.8832 18.5218 3.2618
v  3.2618 18.5218 1.8832
v  3.7664 18.5218 0.0000
v  3.2618 18.5218 -1.8832
v  1.8832 18.5218 -3.2618
# 110 vertices

vn -0.0000 0.8231 0.5678
vn 0.0000 0.8272 -0.5618
vn -0.2905 0.8136 -0.5037
vn -0.5543 0.7668 -0.3236
vn -0.7435 0.6687 -0.0117
vn -0.7632 0.4967 0.4133
vn -0.4968 0.2947 0.8163
vn -0.0000 0.2042 0.9789
vn 0.4968 0.2947 0.8163
vn 0.7632 0.4967 0.4133
vn 0.7435 0.6687 -0.0117
vn 0.5543 0.7668 -0.3236
vn 0.2905 0.8136 -0.5037
vn 0.0000 0.8436 -0.5369
vn 0.0000 0.7390 -0.6737
vn -0.3368 0.7390 -0.5834
vn -0.2684 0.8436 -0.4650
vn -0.5834 0.7390 -0.3368
vn -0.4650 0.8436 -0.2684
vn -0.6737 0.7390 -0.0000
vn -0.5369 0.8436 -0.0000
vn -0.5834 0.7390 0.3368
vn -0.4650 0.8436 0.2684
vn -0.3368 0.7390 0.5834
vn -0.2684 0.8436 0.4650
vn -0.0000 0.7390 0.6737
vn -0.0000 0.8436 0.5369
vn 0.3368 0.7390 0.5834
vn 0.2684 0.8436 0.4650
vn 0.5834 0.7390 0.3368
vn 0.4650 0.8436 0.2684
vn 0.6737 0.7390 0.0000
vn 0.5369 0.8436 0.0000
vn 0.5834 0.7390 -0.3368
vn 0.4650 0.8436 -0.2684
vn 0.3368 0.7390 -0.5834
vn 0.2684 0.8436 -0.4650
vn 0.0000 0.5597 -0.8287
vn -0.4143 0.5597 -0.7176
vn -0.7176 0.5597 -0.4143
vn -0.8287 0.5597 -0.0000
vn -0.7176 0.5597 0.4143
vn -0.4143 0.5597 0.7176
vn -0.0000 0.5597 0.8287
vn 0.4143 0.5597 0.7176
vn 0.7176 0.5597 0.4143
vn 0.8287 0.5597 0.0000
vn 0.7176 0.5597 -0.4143
vn 0.4143 0.5597 -0.7176
vn 0.0000 -0.5824 -0.8129
vn 0.0000 -0.9381 -0.3463
vn -0.1732 -0.9381 -0.2999
vn -0.4064 -0.5824 -0.7040
vn -0.2999 -0.9381 -0.1732
vn -0.7040 -0.5824 -0.4064
vn -0.3463 -0.9381 -0.0000
vn -0.8129 -0.5824 -0.0000
vn -0.2999 -0.9381 0.1732
vn -0.7040 -0.5824 0.4064
vn -0.1732 -0.9381 0.2999
vn -0.4064 -0.5824 0.7040
vn -0.0000 -0.9381 0.3463
vn -0.0000 -0.5824 0.8129
vn 0.1732 -0.9381 0.2999
vn 0.4064 -0.5824 0.7040
vn 0.2999 -0.9381 0.1732
vn 0.7040 -0.5824 0.4064
vn 0.3463 -0.9381 0.0000
vn 0.8129 -0.5824 0.0000
vn 0.2999 -0.9381 -0.1732
vn 0.7040 -0.5824 -0.4064
vn 0.1732 -0.9381 -0.2999
vn 0.4064 -0.5824 -0.7040
vn 0.0000 -0.9915 -0.1302
vn -0.0651 -0.9915 -0.1128
vn -0.1128 -0.9915 -0.0651
vn -0.1302 -0.9915 -0.0000
vn -0.1128 -0.9915 0.0651
vn -0.0651 -0.9915 0.1128
vn -0.0000 -0.9915 0.1302
vn 0.0651 -0.9915 0.1128
vn 0.1128 -0.9915 0.0651
vn 0.1302 -0.9915 0.0000
vn 0.1128 -0.9915 -0.0651
vn 0.0651 -0.9915 -0.1128
vn 0.0000 0.1380 -0.9904
vn -0.4952 0.1380 -0.8577
vn -0.8577 0.1380 -0.4952
vn -0.9904 0.1380 -0.0000
vn -0.8577 0.1380 0.4952
vn -0.4952 0.1380 0.8577
vn -0.0000 0.1380 0.9904
vn 0.4952 0.1380 0.8577
vn 0.8577 0.1380 0.4952
vn 0.9904 0.1380 0.0000
vn 0.8577 0.1380 -0.4952
vn 0.4952 0.1380 -0.8577
vn 0.0000 -1.0000 -0.0000
vn 0.0000 0.8370 -0.5472
vn -0.2731 0.8331 -0.4811
vn -0.4906 0.8209 -0.2923
vn -0.5998 0.8001 -0.0110
vn -0.5557 0.7726 0.3072
vn -0.3397 0.7464 0.5722
vn -0.0000 0.7352 0.6779
vn 0.3397 0.7464 0.5722
vn 0.5557 0.7726 0.3072
vn 0.5998 0.8001 -0.0110
vn 0.4906 0.8209 -0.2923
vn 0.2731 0.8331 -0.4811
# 110 vertex normals

vt 0.3322 0.5631 0.0000
vt 0.3333 0.4965 0.0000
vt 0.3525 0.4997 0.0000
vt 0.3673 0.5081 0.0000
vt 0.3745 0.5201 0.0000
vt 0.6488 0.9800 0.0000
vt 0.5992 0.9561 0.0000
vt 0.6115 0.9486 0.0000
vt 0.6287 0.9446 0.0000
vt 0.6487 0.9434 0.0000
vt 0.6688 0.9446 0.0000
vt 0.6860 0.9485 0.0000
vt 0.6983 0.9559 0.0000
vt 0.2915 0.5189 0.0000
vt 0.2991 0.5071 0.0000
vt 0.3141 0.4991 0.0000
vt 0.3347 0.4057 0.0000
vt 0.3355 0.3326 0.0000
vt 0.4208 0.3395 0.0000
vt 0.3926 0.4128 0.0000
vt 0.5013 0.3629 0.0000
vt 0.4433 0.4337 0.0000
vt 0.5691 0.4121 0.0000
vt 0.4781 0.4711 0.0000
vt 0.5006 0.9193 0.0000
vt 0.4124 0.8592 0.0000
vt 0.4817 0.8120 0.0000
vt 0.5376 0.8838 0.0000
vt 0.5631 0.7916 0.0000
vt 0.5902 0.8659 0.0000
vt 0.6485 0.7869 0.0000
vt 0.6486 0.8611 0.0000
vt 0.7340 0.7915 0.0000
vt 0.7071 0.8658 0.0000
vt 0.8154 0.8116 0.0000
vt 0.7598 0.8835 0.0000
vt 0.8849 0.8585 0.0000
vt 0.7968 0.9189 0.0000
vt 0.1894 0.4675 0.0000
vt 0.0999 0.4063 0.0000
vt 0.1690 0.3587 0.0000
vt 0.2252 0.4309 0.0000
vt 0.2500 0.3373 0.0000
vt 0.2765 0.4111 0.0000
vt 0.3360 0.2910 0.0000
vt 0.4333 0.2938 0.0000
vt 0.5305 0.3056 0.0000
vt 0.6261 0.3390 0.0000
vt 0.3575 0.7857 0.0000
vt 0.4538 0.7547 0.0000
vt 0.5513 0.7454 0.0000
vt 0.6485 0.7450 0.0000
vt 0.7456 0.7453 0.0000
vt 0.8432 0.7541 0.0000
vt 0.9396 0.7849 0.0000
vt 0.0448 0.3320 0.0000
vt 0.1412 0.3009 0.0000
vt 0.2387 0.2914 0.0000
vt 0.3369 0.2173 0.0000
vt 0.3374 0.1755 0.0000
vt 0.4211 0.1671 0.0000
vt 0.4342 0.2117 0.0000
vt 0.4992 0.1371 0.0000
vt 0.5315 0.1911 0.0000
vt 0.5620 0.0800 0.0000
vt 0.6293 0.1491 0.0000
vt 0.3575 0.5972 0.0000
vt 0.4254 0.5295 0.0000
vt 0.4873 0.5875 0.0000
vt 0.4545 0.6408 0.0000
vt 0.5649 0.6187 0.0000
vt 0.5514 0.6631 0.0000
vt 0.6483 0.6285 0.0000
vt 0.6484 0.6707 0.0000
vt 0.7317 0.6186 0.0000
vt 0.7453 0.6630 0.0000
vt 0.8092 0.5871 0.0000
vt 0.8421 0.6403 0.0000
vt 0.8710 0.5290 0.0000
vt 0.9390 0.5964 0.0000
vt 0.0461 0.1423 0.0000
vt 0.1149 0.0748 0.0000
vt 0.1763 0.1334 0.0000
vt 0.1428 0.1866 0.0000
vt 0.2537 0.1655 0.0000
vt 0.2397 0.2096 0.0000
vt 0.3377 0.1286 0.0000
vt 0.3996 0.1193 0.0000
vt 0.4513 0.0901 0.0000
vt 0.4826 0.0418 0.0000
vt 0.5050 0.4926 0.0000
vt 0.5356 0.5412 0.0000
vt 0.5867 0.5711 0.0000
vt 0.6482 0.5815 0.0000
vt 0.7098 0.5710 0.0000
vt 0.7609 0.5410 0.0000
vt 0.7914 0.4923 0.0000
vt 0.1951 0.0385 0.0000
vt 0.2253 0.0875 0.0000
vt 0.2761 0.1180 0.0000
vt 0.3365 0.2516 0.0000
vt 0.4379 0.2499 0.0000
vt 0.5417 0.2450 0.0000
vt 0.6532 0.2427 0.0000
vt 0.3323 0.6897 0.0000
vt 0.4436 0.6943 0.0000
vt 0.5472 0.7013 0.0000
vt 0.6484 0.7054 0.0000
vt 0.7496 0.7012 0.0000
vt 0.8532 0.6936 0.0000
vt 0.9645 0.6888 0.0000
vt 0.0200 0.2352 0.0000
vt 0.1314 0.2401 0.0000
vt 0.2351 0.2475 0.0000
vt 0.3391 0.0200 0.0000
vt 0.6482 0.4727 0.0000
vt 0.3338 0.4550 0.0000
vt 0.3691 0.4603 0.0000
vt 0.3978 0.4748 0.0000
vt 0.4143 0.4974 0.0000
vt 0.5602 0.9459 0.0000
vt 0.5805 0.9260 0.0000
vt 0.6122 0.9155 0.0000
vt 0.6487 0.9126 0.0000
vt 0.6852 0.9154 0.0000
vt 0.7169 0.9258 0.0000
vt 0.7373 0.9457 0.0000
vt 0.2524 0.4953 0.0000
vt 0.2694 0.4731 0.0000
vt 0.2984 0.4593 0.0000
# 130 texture coords

o Sphere001
g Sphere001
usemtl wire_154154229
s 1
f 1/1/1 2/2/2 3/3/3 
f 1/1/1 3/3/3 4/4/4 
f 1/1/1 4/4/4 5/5/5 
f 1/6/1 5/7/5 6/8/6 
f 1/6/1 6/8/6 7/9/7 
f 1/6/1 7/9/7 8/10/8 
f 1/6/1 8/10/8 9/11/9 
f 1/6/1 9/11/9 10/12/10 
f 1/6/1 10/12/10 11/13/11 
f 1/1/1 11/14/11 12/15/12 
f 1/1/1 12/15/12 13/16/13 
f 1/1/1 13/16/13 2/2/2 
f 14/17/14 15/18/15 16/19/16 17/20/17 
f 17/20/17 16/19/16 18/21/18 19/22/19 
f 19/22/19 18/21/18 20/23/20 21/24/21 
f 21/25/21 20/26/20 22/27/22 23/28/23 
f 23/28/23 22/27/22 24/29/24 25/30/25 
f 25/30/25 24/29/24 26/31/26 27/32/27 
f 27/32/27 26/31/26 28/33/28 29/34/29 
f 29/34/29 28/33/28 30/35/30 31/36/31 
f 31/36/31 30/35/30 32/37/32 33/38/33 
f 33/39/33 32/40/32 34/41/34 35/42/35 
f 35/42/35 34/41/34 36/43/36 37/44/37 
f 37/44/37 36/43/36 15/18/15 14/17/14 
f 15/18/15 38/45/38 39/46/39 16/19/16 
f 16/19/16 39/46/39 40/47/40 18/21/18 
f 18/21/18 40/47/40 41/48/41 20/23/20 
f 20/26/20 41/49/41 42/50/42 22/27/22 
f 22/27/22 42/50/42 43/51/43 24/29/24 
f 24/29/24 43/51/43 44/52/44 26/31/26 
f 26/31/26 44/52/44 45/53/45 28/33/28 
f 28/33/28 45/53/45 46/54/46 30/35/30 
f 30/35/30 46/54/46 47/55/47 32/37/32 
f 32/40/32 47/56/47 48/57/48 34/41/34 
f 34/41/34 48/57/48 49/58/49 36/43/36 
f 36/43/36 49/58/49 38/45/38 15/18/15 
f 50/59/50 51/60/51 52/61/52 53/62/53 
f 53/62/53 52/61/52 54/63/54 55/64/55 
f 55/64/55 54/63/54 56/65/56 57/66/57 
f 57/67/57 56/68/56 58/69/58 59/70/59 
f 59/70/59 58/69/58 60/71/60 61/72/61 
f 61/72/61 60/71/60 62/73/62 63/74/63 
f 63/74/63 62/73/62 64/75/64 65/76/65 
f 65/76/65 64/75/64 66/77/66 67/78/67 
f 67/78/67 66/77/66 68/79/68 69/80/69 
f 69/81/69 68/82/68 70/83/70 71/84/71 
f 71/84/71 70/83/70 72/85/72 73/86/73 
f 73/86/73 72/85/72 51/60/51 50/59/50 
s off
f 52/61/52 51/60/51 74/87/74 75/88/75 
f 54/63/54 52/61/52 75/88/75 76/89/76 
f 56/65/56 54/63/54 76/89/76 77/90/77 
f 58/69/58 56/68/56 77/91/77 78/92/78 
f 60/71/60 58/69/58 78/92/78 79/93/79 
f 62/73/62 60/71/60 79/93/79 80/94/80 
f 64/75/64 62/73/62 80/94/80 81/95/81 
f 66/77/66 64/75/64 81/95/81 82/96/82 
f 68/79/68 66/77/66 82/96/82 83/97/83 
f 70/83/70 68/82/68 83/98/83 84/99/84 
f 72/85/72 70/83/70 84/99/84 85/100/85 
f 51/60/51 72/85/72 85/100/85 74/87/74 
s 1
f 86/101/86 50/59/50 53/62/53 87/102/87 
f 87/102/87 53/62/53 55/64/55 88/103/88 
f 88/103/88 55/64/55 57/66/57 89/104/89 
f 89/105/89 57/67/57 59/70/59 90/106/90 
f 90/106/90 59/70/59 61/72/61 91/107/91 
f 91/107/91 61/72/61 63/74/63 92/108/92 
f 92/108/92 63/74/63 65/76/65 93/109/93 
f 93/109/93 65/76/65 67/78/67 94/110/94 
f 94/110/94 67/78/67 69/80/69 95/111/95 
f 95/112/95 69/81/69 71/84/71 96/113/96 
f 96/113/96 71/84/71 73/86/73 97/114/97 
f 97/114/97 73/86/73 50/59/50 86/101/86 
f 38/45/38 86/101/86 87/102/87 39/46/39 
f 39/46/39 87/102/87 88/103/88 40/47/40 
f 40/47/40 88/103/88 89/104/89 41/48/41 
f 41/49/41 89/105/89 90/106/90 42/50/42 
f 42/50/42 90/106/90 91/107/91 43/51/43 
f 43/51/43 91/107/91 92/108/92 44/52/44 
f 44/52/44 92/108/92 93/109/93 45/53/45 
f 45/53/45 93/109/93 94/110/94 46/54/46 
f 46/54/46 94/110/94 95/111/95 47/55/47 
f 47/56/47 95/112/95 96/113/96 48/57/48 
f 48/57/48 96/113/96 97/114/97 49/58/49 
f 49/58/49 97/114/97 86/101/86 38/45/38 
s off
f 74/87/74 98/115/98 75/88/75 
f 75/88/75 98/115/98 76/89/76 
f 76/89/76 98/115/98 77/90/77 
f 77/91/77 98/116/98 78/92/78 
f 78/92/78 98/116/98 79/93/79 
f 79/93/79 98/116/98 80/94/80 
f 80/94/80 98/116/98 81/95/81 
f 81/95/81 98/116/98 82/96/82 
f 82/96/82 98/116/98 83/97/83 
f 83/98/83 98/115/98 84/99/84 
f 84/99/84 98/115/98 85/100/85 
f 85/100/85 98/115/98 74/87/74 
s 1
f 99/117/99 14/17/14 17/20/17 100/118/100 
f 100/118/100 17/20/17 19/22/19 101/119/101 
f 101/119/101 19/22/19 21/24/21 102/120/102 
f 102/121/102 21/25/21 23/28/23 103/122/103 
f 103/122/103 23/28/23 25/30/25 104/123/104 
f 104/123/104 25/30/25 27/32/27 105/124/105 
f 105/124/105 27/32/27 29/34/29 106/125/106 
f 106/125/106 29/34/29 31/36/31 107/126/107 
f 107/126/107 31/36/31 33/38/33 108/127/108 
f 108/128/108 33/39/33 35/42/35 109/129/109 
f 109/129/109 35/42/35 37/44/37 110/130/110 
f 110/130/110 37/44/37 14/17/14 99/117/99 
f 2/2/2 99/117/99 100/118/100 3/3/3 
f 3/3/3 100/118/100 101/119/101 4/4/4 
f 4/4/4 101/119/101 102/120/102 5/5/5 
f 5/7/5 102/121/102 103/122/103 6/8/6 
f 6/8/6 103/122/103 104/123/104 7/9/7 
f 7/9/7 104/123/104 105/124/105 8/10/8 
f 8/10/8 105/124/105 106/125/106 9/11/9 
f 9/11/9 106/125/106 107/126/107 10/12/10 
f 10/12/10 107/126/107 108/127/108 11/13/11 
f 11/14/11 108/128/108 109/129/109 12/15/12 
f 12/15/12 109/129/109 110/130/110 13/16/13 
f 13/16/13 110/130/110 99/117/99 2/2/2 
# 96 polygons - 24 triangles

